<svg xmlns="http://www.w3.org/2000/svg" xmlns:xlink="http://www.w3.org/1999/xlink" version="1.1" x="0px" y="0px" viewBox="0 0 100 125" enable-background="new 0 0 100 100" xml:space="preserve"><path d="M106.274,98.849c0.282,0,0.482-0.134,0.62-0.347v0.043c0,0.473-0.229,0.914-0.651,0.914c-0.193,0-0.359-0.078-0.538-0.234  l-0.144,0.19c0.185,0.153,0.391,0.269,0.676,0.269c0.541,0,0.91-0.49,0.91-1.186v-0.006c0-0.438-0.106-0.682-0.272-0.848  c-0.141-0.141-0.325-0.225-0.575-0.225c-0.466,0-0.788,0.328-0.788,0.744v0.006C105.512,98.564,105.824,98.849,106.274,98.849z   M105.765,98.151c0-0.272,0.197-0.513,0.525-0.513c0.329,0,0.558,0.219,0.558,0.497v0.007c0,0.25-0.21,0.494-0.545,0.494  c-0.319,0-0.538-0.201-0.538-0.479V98.151z"/><path d="M108.457,99.684c0.562,0,0.926-0.52,0.926-1.132v-0.007c0-0.613-0.357-1.125-0.92-1.125c-0.563,0-0.929,0.519-0.929,1.132  v0.007C107.534,99.171,107.891,99.684,108.457,99.684z M107.79,98.545c0-0.481,0.257-0.9,0.667-0.9c0.406,0,0.669,0.429,0.669,0.907  v0.007c0,0.479-0.253,0.9-0.663,0.9s-0.673-0.429-0.673-0.907V98.545z"/><path d="M110.088,99.337c0.125,0.181,0.319,0.344,0.619,0.344c0.392,0,0.773-0.312,0.773-0.841v-0.007  c0-0.532-0.385-0.838-0.773-0.838c-0.297,0-0.487,0.165-0.619,0.359v-0.325h-0.241v2.117h0.241V99.337z M110.078,98.833  c0-0.369,0.285-0.622,0.585-0.622c0.307,0,0.569,0.244,0.569,0.625v0.007c0,0.391-0.256,0.622-0.569,0.622  c-0.3,0-0.585-0.25-0.585-0.625V98.833z"/><polygon points="111.953,99.646 112.457,98.98 112.958,99.646 113.236,99.646 112.598,98.82 113.211,98.029 112.942,98.029   112.46,98.661 111.984,98.029 111.71,98.029 112.316,98.824 111.685,99.646 "/><g><path d="M44.493,21.929c-0.205,1.562-0.693,2.933-1.383,4.567c-0.715,1.696-1.232,3.489-1.057,5.324   c0.191,1.991,1.951,3.51,2.156,3.546c1.734,0.305,3.35,0.961,4.725,1.949c0.18,0.13,0.354,0.264,0.521,0.401   c-1.475-2.251-2.211-4.537-2.156-9.116c0.012-0.961,0.064-1.955-0.01-3.099c-0.273-4.196-0.924-7.188-3.432-10.068   c-0.885-1.016-0.822-0.603-0.406,0.251C44.491,17.812,44.799,19.596,44.493,21.929z"/><path d="M51.216,39.03c0.572,0.623,1.084,1.282,1.609,1.961c0.93,1.208,1.883,2.442,3.309,3.639   c0.094-6.395-2.535-11.771-7.477-14.281c-0.447,1.839,0.238,3.565,0.646,4.835C49.709,36.455,50.622,37.802,51.216,39.03z"/><path d="M24.588,46.188c0.092,2.387,0.672,4.656,1.617,6.842c0.656,1.517,1.477,3.113,2.725,4.24   c-0.041-0.277-0.082-0.553-0.121-0.826c-0.234-1.611-0.328-2.695-0.432-4.324c-0.104-1.637-0.213-3.523,0.125-5.115   c0.092-0.441,0.264-0.861,0.357-1.297c0.105-0.484-0.178-0.46-0.549-0.496c-1.584-0.156-3.422-1.084-4.076-2.644   c-0.033,0.354,0.084,0.63,0.143,0.97C24.522,44.418,24.553,45.303,24.588,46.188z"/><path d="M20.639,55.307c1.836,1.561,4.607,2.404,7.115,2.357c-1.324-1.197-2.229-2.873-2.893-4.494   c-0.879-2.144-2.086-4.434-1.936-6.777c0.008-0.165-1.199-0.589-1.346-0.652c-0.74-0.329-1.377-0.684-1.875-1.311   c-0.277-0.353-0.662-0.67-0.932-1.03C17.264,47.104,17.34,52.504,20.639,55.307z"/><path d="M30.344,67.07c0.328,0.421,0.607,0.157,0.43-0.389c-0.291-0.898-0.557-1.658-0.67-1.99   c-0.596-1.758-0.932-3.644-1.213-5.508c-2.535,0.166-5.432-0.527-7.422-1.996c-0.994-0.734-1.26-0.911-1.645-1.371   c-0.18-0.215-0.516,0.006-0.418,0.333c0.291,0.983,0.658,1.351,1.598,2.682c0.744,1.054,2.098,1.983,3.664,3.062   C26.577,63.204,28.547,64.766,30.344,67.07z"/><path d="M19.489,35.341c-0.354,0.692-0.588,1.437-0.66,2.206c-0.164,1.743,0.361,3.774,1.551,5.076   c0.771,0.842,1.465,1.418,2.537,2.076c0.133,0.082,0.318,0.335,0.484,0.354c0.219,0.023,0.096-0.355,0.051-0.451   c-0.121-0.258-0.236-0.521-0.34-0.791c-0.482-1.25-0.609-2.769-0.238-4.101c-0.633-1.626-0.748-3.46-0.572-5.186   c0.049-0.477,0.113-0.952,0.211-1.423c0.055-0.273,0.508-1.341,0.312-1.597c-0.881,0.589-1.611,1.414-1.822,1.659   C20.424,33.836,19.891,34.555,19.489,35.341z"/><path d="M10.381,33.254c-0.307,0.512-0.84,0.636-0.744,1.265c0.119,0.784,0.754,1.889,1.641,1.764   c1.045-0.145,1.182-0.377,2.184-0.705c1.396-0.456,1.715-0.809,2.807-1.51c-2.42-0.075-4.369-1.296-5.459-2.134   C10.756,32.515,10.629,32.836,10.381,33.254z"/><path d="M10.297,31.412c0.045-0.359-0.898-1.216-1.041-1.518c-0.283-0.6-0.432-0.662-0.607-1.303   c-0.117-0.426-0.535-0.37-0.613,0.045c-0.047,0.262,0.031,0.547,0.074,0.805c0.127,0.786,0.482,1.452,0.951,2.045   c0.129,0.162,0.381,0.299,0.584,0.331C9.987,31.871,10.266,31.668,10.297,31.412z"/><path d="M20.155,31.616c0.473-0.994-0.248-2.362-1.789-2.194c1.27-0.373,2.217-0.516,2.695-0.608   c1.457-0.281,2.826-1.067,4.098-1.798c0.607-0.349,1.15-0.807,1.629-1.336c0.781-0.865,1.488-1.984,1.979-3.165   c-0.029,0.39-0.078,0.782-0.152,1.182c-0.232,1.229-0.676,2.422-1.289,3.511c-0.469,0.834-1.148,1.516-1.76,2.245   c-0.629,0.75-1.186,1.575-1.623,2.453c-0.447,0.902-0.74,1.87-0.822,2.868c-0.189,2.26,0.521,4.881,2.082,6.55   c1.01,1.08,1.916,1.815,3.314,2.653c0.174,0.104,0.418,0.43,0.635,0.451c0.283,0.027,0.117-0.463,0.059-0.586   c-0.162-0.332-0.314-0.672-0.453-1.02c-0.541-1.363-0.631-2.851-0.59-4.302c0.039-1.432,0.125-2.893,0.387-4.302   c0.086-0.464,0.322-2.258,0.662-2.623c-0.998,5.327,0.646,6.725,1.707,7.65c0.26,0.226,0.705,0.457,0.994,0.641   c0.375,0.24,0.777,0.457,1.189,0.63c0.174,0.073,0.457,0.219,0.656,0.196c0.316-0.037,0.168-0.349,0-0.531   c-0.176-0.192-0.406-0.89-0.467-1.14c-0.564-2.318,0.301-3.197,0.545-3.553c0.004-0.007-0.088-0.142-0.121-0.207   c-0.684-1.322-0.887-3.421-0.537-5c0.287-1.293,1.197-2.272,1.785-3.432c0.502-0.996,0.84-2.143,0.771-3.257   c-0.037-0.603-0.201-1.183-0.365-1.763c-0.039-0.159-0.096-0.282-0.143-0.424c-0.051-0.138-0.154-0.279-0.234-0.432   c-0.045-0.083-0.01-0.186,0.074-0.229c0.4-0.203,0.914,1.522,0.975,1.752c0.535,2.054,0.164,3.849-0.783,5.741   c-0.363,0.726-0.883,1.855-1.002,3.019c-0.18,1.766,0.543,3.633,1.988,5.067c0.154-3.621,4.982-4.693,6.51-11.982   c0.34-1.618,0.738-3.24,0.48-4.859c-0.154-0.951-0.566-2.119-1.047-2.956c-1.834-3.19-5.455-5.251-9.168-5.041   c-0.295,0.017-0.547,0.037-0.762,0.055c-0.432,0.056-0.68,0.088-0.68,0.088c-0.096,0.013-0.184-0.045-0.193-0.129   c-0.012-0.078,0.049-0.152,0.135-0.17c2.217-0.5,4.49-0.539,6.557,0.322c0.127,0.052,0.254,0.113,0.377,0.176   c0.102,0.051,0.412-0.04,0.227-0.315c-1.33-2.335-3.408-3.969-7.84-3.952c-0.945,0.004-1.998,0.301-2.861,0.665   c-0.234,0.098-0.445,0.228-0.67,0.341c-0.146,0.076-0.488,0.241-0.604,0.052c-0.055-0.09,0.01-0.153,0.098-0.201   c0.01-0.006,0.02-0.012,0.029-0.018c0.211-0.119,0.406-0.244,0.607-0.377c0.082-0.053,0.17-0.112,0.277-0.173   c2.713-1.535,5.525-1.506,7.977-0.42c0.195,0.088,0.328-0.077,0.227-0.196c-3.482-4.096-11.381-1.891-14.74,1.286   c-1.027,0.972-2.723,3.162-2.418,4.659c0.828-0.516,2.588-1.565,4.932-1.349c1.955,0.18,2.678,1.223,3.305,2.118   c-0.953-1.009-2.678-1.403-3.307-1.395c-1.932,0.024-7.648,2.5-8.693,4.237c-0.326,0.539-0.402,1.167-0.266,1.777   c0.053,0.23-0.422,0.678-0.744,0.877c-1.637,1.017-3.221,2.135-4.588,3.5c-0.572,0.57-1.365,1.376-1.848,2.024   c-0.443,0.594-0.115,0.954,0.307,1.787c0.203,0.401,0.832,0.324,1.191,0.109c0.264-0.157,0.469-0.434,0.701-0.631   c0.656-0.555,1.445-0.959,2.281-1.159c0.27-0.064,0.631-0.096,0.691,0.257c0.043,0.255-0.143,0.334-0.361,0.354   c-0.281,0.026-0.475,0.135-0.742,0.219c-0.098,0.031-0.186,0.048-0.279,0.091c-0.127,0.059-0.133,0.091-0.182,0.208   c-0.094,0.221-0.123,0.445-0.199,0.669c-0.088,0.258-0.297,0.444-0.518,0.592c-0.35,0.233-0.906,0.272-0.961,0.532   c-0.076,0.357,0.404,1.39,0.643,1.741c0.605,0.889,1.52,1.66,2.461,2.152c1.271,0.662,3.033,1.516,4.496,1.239   C18.098,32.936,19.659,32.658,20.155,31.616z M17.223,20.833c-0.043,0.093-0.084,0.339-0.219,0.335   c-0.074-0.002-0.111-0.113-0.125-0.172c-0.1-0.454-0.369-0.826-0.818-0.97c-0.129-0.04-0.26-0.076-0.393-0.092   c-0.057-0.007-0.117-0.005-0.174-0.02c-0.025-0.005-0.055-0.019-0.055-0.051c0-0.039,0.1-0.189,0.129-0.194   c0.084-0.013,0.375,0.018,0.461,0.019c0.248,0.003,0.482,0.078,0.723,0.132c0.338,0.077,0.592-0.123,0.752-0.408   c0.086-0.151,0.098-0.202,0.02-0.313c-0.238-0.339-0.193-0.91-0.094-1.291c0.041-0.157,0.094-0.308,0.182-0.446   c0.338-0.54,0.66-0.768,1.492-1.062c0.119-0.042,0.25,0.021,0.291,0.14c0.043,0.12-0.02,0.25-0.139,0.292   c-0.33,0.116-0.686,0.233-0.949,0.469c-0.18,0.159-0.357,0.543-0.156,0.79c0.15,0.185,0.336,0.177,0.547,0.189   c0.4,0.022,0.803,0.069,1.201,0.122c0.137,0.018,0.309,0.016,0.383,0.094c0.113,0.119-0.055,0.227-0.141,0.264   c-0.166,0.069-0.342,0.117-0.508,0.188c-0.48,0.207-0.955,0.436-1.377,0.748C17.821,19.917,17.448,20.336,17.223,20.833z"/><path d="M21.094,32.362c0.029,0.006,0.059,0.012,0.088,0.017c0.01-0.027,0.016-0.053,0.021-0.079L21.094,32.362z"/><path d="M92.634,74.476c-0.123-2.571-0.844-4.913-2.131-7.212c-1.232-2.199-2.77-4.059-4.285-5.804   c-1.518-1.745-3.084-3.356-4.434-4.96c-2.699-3.211-6.65-9.762-1.697-12.904c0.441-0.003,0.861,0.058,1.254,0.24   c0.33,0.153,0.605,0.368,0.928,0.528c0.426,0.21,0.914,0.368,1.387,0.497c1.328,0.365,2.758-0.297,4.117-0.439   c1.15-0.121,2.342,0.216,3.125,0.882c-0.527-0.515-0.736-1.118-0.887-1.783c-0.182-0.788-0.303-1.543-0.701-2.272   c-0.182-0.333-0.352-0.675-0.641-0.955c-2.311-2.241-5.896-1.107-8.234,0.404c-0.52,0.336-1.049,0.683-1.494,1.086l-0.018,0.092   c-0.016,0.008-0.031,0.015-0.045,0.022c-4.08,2.488-3.824,8.352-1.902,12.143c0.738,1.457,1.705,2.867,2.709,4.154   c1.375,1.764,2.875,3.42,4.277,5.159c1.857,2.304,3.475,4.657,4.594,7.405c0.328,1.158,0.635,2.557,0.762,3.867   c0.082,0.838-0.176,1.777-0.479,2.551c-0.988,2.119-3.592,2.186-4.562,1.665c-1.977-1.058-2.275-2.798-2.707-4.85   c-0.455-1.686-1.203-5.464-1.855-7.224c-1.002-2.691-1.844-5.484-3.359-7.946c-2.828-4.596-7.867-7.833-12.873-9.592   c-1.025-0.36-2.064-0.667-3.098-0.991c-1.174-0.369-2.102-0.66-2.768-1.048c-1.832-1.069-3.41-2.457-4.748-4.099   c-2.469-3.028-4.522-5.701-8.542-6.61c-1.666-0.377-2.795-0.897-3.168-2.694c-0.131-0.619-0.502-1.098-0.52-1.721   c-0.375,0.394-0.686,0.896-1.035,1.311c-0.84,0.998-1.578,1.91-2.281,3.006c-0.707,1.104-1.465,1.364-2.422,0.277   c-0.1-0.112-0.26-0.351-0.439-0.306c-0.193,0.049-0.252,0.386-0.283,0.544c-0.295,1.492,0.15,3.348,0.875,4.676   c0.096,0.175,0.205,0.479,0.178,0.68c-3.953-0.833-6.227-3.315-6.178-3.385c-0.363,0.52,0.326,4.057,1.506,5.366   c0.223,0.249-0.701,3.462-0.756,3.934c-0.197,1.723-0.227,3.467-0.152,5.198c0.191,4.417,0.992,8.878,2.34,13.088l0.139,0.433   c0.455,1.424,0.795,2.76,1.025,4.014c0.021,0.043,0.023,0.089,0.016,0.133c0.711,4.066,0.521,8.244,0.518,12.353   c0,0.653,0.457,6.469-0.494,6.604c-0.299,0.041-0.602,0.119-0.883,0.195l-0.252,0.067c-0.932,0.241-2.139,0.6-3.201,1.228   c-0.881,0.521-2.314,1.618-2.029,3.123c0.02,0.102,0.053,0.193,0.086,0.286h12.271c0.17-0.153,0.33-0.343,0.488-0.543   c1.059-1.331,0.715-3.747,0.713-5.331c-0.01-6.094,1.664-12.076,1.551-18.168c-0.033-1.819-0.105-3.392-0.162-4.392   c-0.055-0.327-0.129-0.913-0.066-1.141c0.01-0.031,0.02-0.06,0.035-0.072c1.518-1.261,2.09-2.294,2.688-3.319   c0.758-1.298,1.393-2.637,1.811-4.378c0.262-1.084,0.588-2.25,0.592-3.126c0-0.229,0.016-0.483,0.033-0.748   c0.045-0.686,0.094-1.462-0.137-2.006c-0.043-0.106,0.006-0.229,0.113-0.274c0.107-0.045,0.23,0.005,0.275,0.112   c0.268,0.635,1.074,2.095,0.947,4.408c-0.123,2.225-0.902,4.58-2.221,6.559c-1.23,1.848-2.701,3.527-3.068,5.795   c0.031,0.762,0.059,1.631,0.076,2.566c0.018,1.043-0.061,2.559-0.178,4.131c0.791,1.096,1.711,1.913,3.045,2.521   c0.793,0.363,1.664,0.609,2.486,0.887c0.551,0.186,4.225,0.262,7.327,2.531c0.311,0.227,0.461-0.042,0.279-0.419   c-1.434-3.009-1.041-5.253-0.729-6.942c0.602-3.227,4.662-6.249,8.34-5.885c0.115,0.011,0.205,0.104,0.199,0.22   c-0.006,0.114-0.162,0.405-0.273,0.393c-3.203-0.151-6.352,2.767-6.916,5.811c-0.236,1.274-0.197,2.585,0.055,3.876   c0.211,1.082,0.592,2.726,1.562,4.438c1.002,1.768,2.371,3.297,3.713,4.494l0.08,0.074c0.809,0.703,1.602,1.439,2.57,1.917   c0.145,0.071,0.287,0.087,0.4,0.217c0.094,0.107,0.145,0.272,0.029,0.386c-0.115,0.112-0.309,0.086-0.453,0.071   c-0.191-0.021-2.01,0.005-2.203,0.005c-1.508,0-2.881,0.833-3.34,1.305c-1.221,1.256-1.223,2.798-1.182,4.137   c0,0,12.039-0.027,13.564-0.027c1.783,0,3.631-0.723,4.277-1.08c2.068-1.141,2.365-2.381,3.182-3.793   c1.014-1.755,2.316-3.006,4.193-3.805c2.414-1.025,4.797-1.826,6.73-3.694c1.939-1.871,2.998-4.36,3.037-7.05   C92.657,75.188,92.651,74.83,92.634,74.476z"/></g><text x="0" y="115" fill="#000000" font-size="5px" font-weight="bold" font-family="'Helvetica Neue', Helvetica, Arial-Unicode, Arial, Sans-serif">Created by Ben Didier</text><text x="0" y="120" fill="#000000" font-size="5px" font-weight="bold" font-family="'Helvetica Neue', Helvetica, Arial-Unicode, Arial, Sans-serif">from the Noun Project</text></svg>